<svg width="650" height="350" viewBox="0 0 650 350" fill="none" xmlns="http://www.w3.org/2000/svg">
<g clip-path="url(#clip0_1095_3176)">
<path d="M649.98 190.79C649.95 189.94 649.93 189.79 649.17 189.85C648.41 189.89 646.91 190.14 644.75 190.78C642.61 191.43 639.74 192.46 637.03 193.7C634.29 194.95 631.73 196.43 629.34 198.44C626.93 200.45 624.91 203 623.2 205.36C621.54 207.74 620.4 209.97 619.27 212.48C618.93 213.29 618.58 214.13 618.24 214.96C618.99 210.98 619.61 206.96 620.12 202.94C620.66 198.28 620.99 193.62 621.15 188.96C621.27 188.95 621.39 188.93 621.54 188.91C623.12 188.7 626.31 188.2 628.92 187.32C631.53 186.43 633.57 185.17 635.71 183.47C637.81 181.77 640.03 179.61 641.85 176.33C643.59 173.05 644.96 168.63 645.76 164.67C645.97 163.68 646.17 162.71 646.34 161.79C646.5 160.86 646.61 159.98 646.72 159.14C646.93 157.46 647.06 155.97 647.1 154.75C647.17 152.3 646.86 150.93 646.72 150.17C646.56 149.42 646.52 149.29 645.84 149.46C645.15 149.62 643.83 150.08 641.97 151.01C640.11 151.94 637.72 153.32 635.48 154.89C633.2 156.46 631.05 158.22 629.25 160.43C627.49 162.64 625.92 165.29 624.85 167.71C623.81 170.13 623.04 172.35 622.51 174.82C622.05 177.03 621.55 179.43 621.25 181.31C621.24 176.22 621.07 171.15 620.79 166.14C620.64 163.11 620.39 160.1 620.35 157.09C620.32 155.81 620.24 154.53 620.16 153.25C620.29 153.21 620.44 153.16 620.61 153.11C622.02 152.66 624.84 151.69 627.07 150.47C629.31 149.24 630.96 147.78 632.6 145.91C634.23 144.04 635.97 141.74 637.07 138.51C638.16 135.29 638.72 131.11 638.85 127.42C639.07 123.71 638.87 120.52 638.6 118.31C638.33 116.09 637.87 114.9 637.61 114.25C637.35 113.6 637.3 113.49 636.7 113.74C636.1 113.99 634.96 114.6 633.41 115.7C631.86 116.81 629.9 118.4 628.04 120.16C626.2 121.91 624.51 123.82 623.21 126.09C621.94 128.35 620.89 131 620.3 133.35C619.72 135.71 619.37 137.84 619.26 140.16C619.21 141.56 619.17 143.04 619.15 144.39C618.87 142.7 618.56 141.03 618.19 139.37C617.59 136.49 616.85 133.67 616.13 130.87C615.23 127.58 614.32 124.34 613.38 121.15C613.56 121.07 613.84 120.94 614.27 120.72C615.48 120.11 617.9 118.82 619.75 117.39C621.6 115.96 622.89 114.39 624.15 112.46C625.41 110.52 626.57 108.23 627.16 105.15C627.31 104.38 627.42 103.56 627.49 102.72C627.55 101.88 627.57 101.01 627.57 100.13C627.57 98.3701 627.46 96.5801 627.32 94.8901C626.97 91.5401 626.43 88.6701 625.91 86.7101C625.36 84.7601 624.78 83.7501 624.47 83.2001C624.16 82.6501 624.09 82.5501 623.58 82.8601C623.06 83.1601 622.1 83.8601 620.82 85.0601C619.54 86.2701 617.95 87.9701 616.52 89.7901C615.07 91.6201 613.76 93.5901 612.86 95.8201C611.96 98.0601 611.48 100.56 611.19 102.81C610.92 105.06 611.01 107 611.19 109.14C611.37 111.28 611.73 113.58 612.04 115.22C612.31 116.87 612.51 117.88 612.67 118.65C612.7 118.78 612.72 118.89 612.74 119C610.69 112.12 608.54 105.48 606.17 99.1401C605.7 97.9001 605.24 96.6701 604.78 95.4501C604.38 94.4301 603.96 93.4301 603.54 92.4301C603.67 92.3401 603.82 92.2401 604.01 92.1101C605.04 91.3901 607.08 89.9001 608.59 88.3601C610.1 86.8201 611.08 85.2201 611.99 83.3101C612.87 81.4101 613.67 79.1601 613.83 76.3001C614.03 73.4201 613.41 70.0201 612.76 67.0001C612.12 63.9801 611.24 61.4901 610.55 59.7801C609.84 58.0801 609.25 57.2001 608.89 56.7501C608.54 56.2901 608.47 56.2101 608.04 56.5501C607.6 56.8801 606.8 57.6301 605.77 58.8601C604.74 60.1001 603.44 61.8501 602.33 63.6801C601.21 65.5201 600.25 67.4501 599.69 69.5801C599.16 71.7101 598.94 74.0801 598.97 76.1501C598.99 78.2301 599.32 79.9901 599.74 81.9201C600.13 83.6701 600.67 85.4901 601.12 86.9101C600.81 86.2401 600.49 85.5801 600.18 84.9201C599.64 83.8001 599.11 82.6801 598.58 81.5801C598.01 80.5001 597.45 79.4201 596.89 78.3601C595.77 76.2301 594.67 74.1501 593.5 72.1601C592.6 70.5901 591.69 69.0701 590.79 67.5701C590.9 67.4801 591.02 67.3701 591.19 67.2201C592.05 66.4501 593.74 64.8601 594.95 63.2901C596.15 61.7201 596.86 60.1601 597.48 58.3201C598.09 56.4801 598.65 54.3101 598.45 51.7301C598.26 49.1501 597.48 46.0301 596.54 43.4001C595.6 40.7701 594.64 38.5401 593.84 37.0601C593.03 35.5901 592.37 34.8901 592.02 34.5001C591.66 34.1101 591.59 34.0501 591.23 34.4001C590.86 34.7501 590.2 35.5101 589.36 36.7401C588.53 37.9801 587.53 39.6801 586.7 41.4501C585.85 43.2401 585.15 45.1101 584.84 47.1201C584.53 49.1401 584.61 51.3001 584.87 53.1801C585.1 55.0801 585.53 56.6901 586.15 58.4001C586.46 59.2501 586.82 60.1301 587.18 60.9501C587.52 61.7801 587.85 62.5701 588.14 63.2201C588.18 63.3101 588.21 63.3801 588.25 63.4701C585.39 58.9501 582.54 54.8101 579.79 51.0601C578.63 49.4001 577.47 47.8501 576.34 46.3501C576.45 46.2401 576.6 46.0801 576.83 45.8301C577.54 45.0401 578.95 43.4201 579.9 41.8601C580.85 40.3001 581.36 38.8101 581.76 37.0701C581.96 36.2001 582.13 35.2601 582.21 34.2401C582.27 33.2401 582.24 32.1501 582.05 30.9701C581.66 28.6301 580.67 25.8601 579.6 23.5501C578.52 21.2401 577.46 19.3001 576.61 18.0301C575.77 16.7501 575.12 16.1601 574.76 15.8401C574.4 15.5201 574.33 15.4701 574.02 15.8201C573.71 16.1701 573.16 16.9201 572.5 18.1101C571.84 19.3101 571.07 20.9501 570.42 22.6601C569.78 24.3701 569.3 26.1301 569.19 28.0101C569.08 29.8801 569.34 31.8501 569.74 33.5501C570.12 35.2701 570.65 36.7101 571.37 38.2201C572.08 39.7301 573.02 41.2801 573.65 42.4401C574.16 43.3501 574.54 43.9501 574.84 44.4201C574.38 43.8201 573.93 43.2301 573.5 42.6501C571.53 40.0801 569.63 37.7901 567.98 35.6701C565.37 32.5201 563.22 29.8501 561.51 27.7901C561.57 27.7101 561.65 27.6101 561.73 27.5001C562.32 26.7201 563.47 25.1101 564.22 23.6101C564.96 22.1001 565.31 20.7001 565.54 19.0801C565.76 17.4501 565.87 15.6001 565.36 13.4501C564.82 11.3401 563.67 8.95012 562.55 6.89012C561.45 4.82012 560.31 3.16012 559.43 2.08012C558.56 0.990123 557.93 0.500123 557.59 0.230123C557.25 -0.0398772 557.18 -0.0798772 556.92 0.260123C556.66 0.600123 556.21 1.33012 555.68 2.48012C555.15 3.63012 554.55 5.20012 554.09 6.80012C553.63 8.40012 553.33 10.0501 553.37 11.7601C553.42 13.4701 553.76 15.3001 554.25 16.8401C554.74 18.3801 555.35 19.6501 556.14 20.9601C556.46 21.4801 556.8 22.0201 557.13 22.5501C556.39 21.6801 555.2 21.4401 554.5 21.9601C554.44 22.0101 554.39 22.0601 554.34 22.1101C554.14 21.7901 553.9 21.4101 553.59 20.9401C552.96 19.9801 552.03 18.6701 551.08 17.5201C550.14 16.3501 549.13 15.3901 547.81 14.4201C546.49 13.4601 544.86 12.5001 543.18 11.8601C541.51 11.2101 539.72 10.9501 537.98 10.8001C536.23 10.6601 534.48 10.6601 533.17 10.7401C531.87 10.8201 531 10.9701 530.58 11.0701C530.16 11.1701 530.17 11.2401 530.31 11.5801C530.45 11.9201 530.71 12.5401 531.44 13.5101C532.17 14.4901 533.38 15.8101 534.9 17.2801C536.43 18.7401 538.17 20.4401 539.97 21.5501C541.76 22.6701 543.54 23.2801 545.14 23.7801C546.75 24.2601 548.22 24.5801 549.99 24.6701C551.6 24.7501 553.47 24.6401 554.55 24.5801C554.63 24.6801 554.72 24.7701 554.8 24.8601C554.8 24.8601 555.9 25.9101 557.91 27.9401C559.36 29.3601 561.19 31.3401 563.37 33.8001C562.6 33.1401 561.72 32.4201 560.85 31.7801C559.59 30.8401 558.3 30.1401 556.76 29.5701C555.21 29.0001 553.4 28.5501 551.65 28.4901C549.91 28.4201 548.22 28.7701 546.57 29.2701C544.93 29.7801 543.33 30.4501 542.17 31.0301C541.01 31.6101 540.26 32.1001 539.91 32.3801C539.56 32.6601 539.59 32.7201 539.84 33.0401C540.08 33.3601 540.54 33.9401 541.55 34.7301C542.58 35.5101 544.08 36.5801 545.98 37.6601C547.87 38.7501 550.11 39.9001 552.1 40.5401C554.11 41.1601 555.97 41.2101 557.63 41.1301C559.29 41.0501 560.78 40.8501 562.41 40.3101C564.05 39.7501 565.89 38.8201 566.79 38.3401C566.91 38.2801 567.01 38.2201 567.1 38.1701C568.55 39.9501 570.12 41.8601 571.73 43.9801C573.64 46.5601 575.76 49.3101 577.81 52.4101C578.01 52.7001 578.22 53.0101 578.42 53.3101C577.56 52.3901 576.5 51.3101 575.43 50.3601C574.13 49.2401 572.82 48.3601 571.22 47.5801C569.61 46.8101 567.73 46.1301 565.82 45.9401C563.92 45.7401 562.06 45.9401 560.25 46.3401C558.44 46.7401 556.66 47.3201 555.35 47.8401C554.04 48.3601 553.2 48.8301 552.8 49.1001C552.39 49.3701 552.43 49.4401 552.66 49.8001C552.89 50.1701 553.31 50.8301 554.31 51.7701C555.31 52.7201 556.93 53.9201 558.8 55.2901C560.68 56.6501 563.02 58.0601 565.09 58.9401C567.19 59.8001 569.17 60.0301 570.98 60.1201C572.78 60.2101 574.4 60.1401 576.23 59.7101C578.06 59.2801 580.14 58.4701 581.17 58.0501C581.29 58.0001 581.39 57.9601 581.48 57.9201C584.55 62.6801 587.67 67.9401 590.74 73.6701C590.83 73.8301 590.92 74.0001 591.01 74.1601C590.42 73.4301 589.77 72.6701 589.13 71.9701C588.5 71.2901 587.87 70.6701 587.2 70.0801C586.5 69.5101 585.76 68.9801 584.94 68.4801C583.29 67.4701 581.3 66.5601 579.31 66.1201C577.28 65.7001 575.26 65.7301 573.26 65.9701C571.26 66.2101 569.29 66.6601 567.82 67.0901C566.36 67.5201 565.4 67.9401 564.94 68.1901C564.47 68.4301 564.5 68.5101 564.71 68.9301C564.91 69.3501 565.29 70.1001 566.27 71.2001C566.76 71.7501 567.39 72.4001 568.15 73.1001C568.88 73.8201 569.73 74.6101 570.68 75.4301C571.63 76.2501 572.67 77.1001 573.76 77.8901C574.82 78.7001 575.91 79.4401 576.99 80.0201C579.15 81.1701 581.31 81.6201 583.2 81.9401C585.1 82.2501 586.83 82.3801 588.87 82.1401C590.91 81.8901 593.26 81.2701 594.41 80.9401C594.46 80.9301 594.49 80.9201 594.54 80.9001C594.9 81.6101 595.26 82.3101 595.62 83.0301C596.14 84.1201 596.66 85.2201 597.19 86.3201C597.72 87.4301 598.26 88.5401 598.8 89.6701C599.31 90.8101 599.83 91.9501 600.35 93.1101C600.87 94.2701 601.42 95.4201 601.93 96.6001C602.43 97.7901 602.93 98.9801 603.43 100.18C603.55 100.47 603.67 100.77 603.79 101.07C603.06 99.8001 602.15 98.2901 601.2 96.9301C600.02 95.3001 598.75 93.9401 597.14 92.6301C595.54 91.3101 593.47 90.1001 591.36 89.3901C589.25 88.6801 587.09 88.4601 584.93 88.4601C582.76 88.4701 580.55 88.7301 578.92 89.0201C577.29 89.3101 576.2 89.6501 575.67 89.8601C575.14 90.0701 575.16 90.1601 575.33 90.6201C575.49 91.0901 575.86 91.9101 576.72 93.2101C577.58 94.5201 579.07 96.2701 580.9 98.2401C582.65 100.24 584.91 102.41 587.03 103.93C589.18 105.44 591.38 106.23 593.42 106.81C595.43 107.4 597.25 107.78 599.48 107.81C601.7 107.83 604.32 107.49 605.61 107.31C605.85 107.27 606.04 107.25 606.2 107.22C608.86 114.41 611.14 122.04 612.56 130.05C612.01 128.63 611.25 126.99 610.49 125.49C609.52 123.55 608.35 121.91 606.8 120.26C606.02 119.44 605.14 118.62 604.19 117.88C603.21 117.14 602.16 116.47 601.08 115.94C598.92 114.87 596.63 114.33 594.31 114.03C591.96 113.74 589.57 113.71 587.77 113.79C585.97 113.88 584.76 114.09 584.16 114.24C583.56 114.39 583.57 114.48 583.68 115C583.78 115.52 584.04 116.44 584.79 117.94C585.51 119.45 586.87 121.5 588.49 123.86C590.11 126.22 592.14 128.86 594.18 130.8C595.22 131.76 596.31 132.53 597.4 133.18C598.47 133.83 599.53 134.37 600.56 134.83C602.62 135.77 604.54 136.46 606.93 136.84C609.33 137.21 612.19 137.27 613.59 137.28C613.65 137.28 613.69 137.28 613.75 137.28C613.89 138.21 614.03 139.13 614.14 140.07C614.6 142.92 614.91 145.8 615.34 148.68C615.56 150.12 615.77 151.57 615.99 153.02C616.21 154.47 616.49 155.92 616.69 157.39C616.96 159.45 617.19 161.53 617.31 163.62C616.97 161.85 616.39 159.59 615.75 157.55C615.01 155.31 614.05 153.35 612.71 151.33C611.34 149.31 609.41 147.26 607.31 145.76C605.22 144.26 602.77 143.32 600.33 142.64C597.87 141.96 595.33 141.53 593.4 141.34C591.47 141.15 590.14 141.18 589.47 141.25C588.8 141.31 588.8 141.41 588.82 141.98C588.85 142.54 588.9 143.56 589.48 145.26C590.09 146.95 591.06 149.35 592.46 152.1C593.17 153.48 593.86 154.95 594.7 156.38C595.11 157.09 595.55 157.8 596 158.47C596.44 159.14 596.88 159.79 597.35 160.39C599.23 162.78 601.46 164.42 603.46 165.78C605.49 167.14 607.42 168.22 609.91 169.05C612.41 169.87 615.45 170.46 616.95 170.73C617.16 170.77 617.33 170.8 617.49 170.82C617.51 178.86 616.79 186.95 615.72 194.98C615.65 194.24 615.57 193.49 615.45 192.77C615.26 191.51 615.04 190.31 614.72 189.12C614.37 187.93 613.94 186.76 613.39 185.55C612.33 183.14 610.66 180.6 608.67 178.61C606.7 176.62 604.31 175.19 601.79 174.02C599.28 172.85 596.64 171.95 594.61 171.4C592.58 170.86 591.15 170.65 590.42 170.6C589.69 170.55 589.67 170.65 589.59 171.25C589.52 171.85 589.39 172.93 589.71 174.82C589.88 175.76 590.11 176.91 590.42 178.22C590.73 179.53 591.17 180.99 591.62 182.57C592.06 184.15 592.59 185.84 593.22 187.5C593.8 189.16 594.47 190.78 595.27 192.23C596.86 195.12 598.79 197.26 600.75 199.11C602.7 200.95 604.48 202.47 606.97 203.85C609.3 205.14 612.2 206.3 613.84 206.92C613.03 211.27 612.1 215.6 611.09 219.89C609.99 224.36 608.88 228.81 607.75 233.25C607.88 232.23 607.98 231.18 608.01 230.16C608.08 228.78 608.08 227.45 608.01 226.13C607.89 224.8 607.67 223.46 607.34 222.07C606.72 219.3 605.44 216.24 603.75 213.74C602.05 211.23 599.76 209.22 597.34 207.48C594.92 205.74 592.29 204.26 590.21 203.27C588.14 202.29 586.65 201.79 585.88 201.59C585.11 201.39 585.07 201.5 584.89 202.11C584.72 202.73 584.38 203.83 584.31 205.87C584.28 207.91 584.41 210.86 584.8 214.37C584.95 216.11 585.16 217.99 585.49 219.87C585.76 221.73 586.14 223.58 586.69 225.27C587.72 228.62 589.4 231.33 591.05 233.69C592.67 236.04 594.29 238.06 596.64 240.06C599 242.06 602.03 244.06 603.55 245.03C603.71 245.13 603.84 245.21 603.97 245.29C600.69 253.63 596.4 261.43 591.92 268.72C591.67 269.15 591.39 269.57 591.13 270C591.34 269.36 591.54 268.71 591.72 268.06C592.57 265.2 592.95 262.45 592.92 259.37C592.9 257.83 592.7 256.16 592.4 254.53C592.1 252.9 591.65 251.28 591 249.74C589.7 246.68 587.85 244.1 585.61 241.7C583.4 239.31 580.92 237.17 578.95 235.68C576.98 234.19 575.51 233.34 574.74 232.97C573.97 232.59 573.89 232.69 573.56 233.28C573.22 233.87 572.63 234.94 572.16 237.05C571.62 239.13 571.21 242.26 570.79 245.96C570.41 249.67 570 253.96 570.35 257.71C570.56 259.61 570.86 261.31 571.34 262.95C571.8 264.58 572.42 266.13 572.97 267.55C574.11 270.4 575.34 272.93 577.32 275.63C579.2 278.19 581.73 280.91 583.14 282.38C583.08 282.47 583.02 282.56 582.96 282.65C580.01 287.18 576.94 291.51 573.68 295.52C569.51 300.5 565.23 305.11 560.86 309.23C561.26 308.73 561.67 308.21 562.08 307.66C563.03 306.36 563.97 304.93 564.81 303.56C565.67 302.2 566.33 300.78 566.95 299.36C567.57 297.94 568.07 296.45 568.43 294.81C568.79 293.17 569.11 291.45 569.19 289.64C569.28 287.83 569.22 286.01 568.95 284.27C568.39 280.75 567.01 277.51 565.31 274.48C563.58 271.42 561.48 268.54 559.76 266.49C558.04 264.44 556.7 263.18 555.98 262.58C555.26 261.99 555.16 262.07 554.68 262.58C554.18 263.08 553.37 264.07 552.33 266.05C551.8 267.04 551.27 268.32 550.68 269.79C550.06 271.23 549.47 272.95 548.79 274.76C548.11 276.56 547.47 278.6 546.82 280.58C546.51 281.58 546.23 282.61 546 283.63C545.74 284.63 545.52 285.62 545.37 286.6C545.22 287.58 545.13 288.56 545.08 289.51C545.02 290.44 545 291.36 545.02 292.27C545.06 294.07 545.25 295.83 545.46 297.48C545.85 300.75 546.4 303.73 547.66 307.13C548.91 310.5 550.85 314.32 551.84 316.2C551.94 316.39 552.02 316.54 552.1 316.69C545.38 321.94 538.68 326.04 532.51 329.2C530.91 330.06 529.31 330.79 527.78 331.51C527.01 331.87 526.26 332.22 525.52 332.56C524.77 332.87 524.03 333.18 523.31 333.49C520.45 334.77 517.74 335.71 515.32 336.63C510.42 338.31 506.55 339.49 503.88 340.22C501.22 340.95 499.8 341.34 499.8 341.34C496.86 342.06 494.89 344.56 495.41 346.92C495.92 349.24 498.84 350.52 501.96 349.83C501.96 349.83 503.48 349.43 506.32 348.61C509.15 347.77 513.25 346.37 518.32 344.22C520.82 343.07 523.61 341.86 526.53 340.3C527.26 339.92 528.01 339.53 528.77 339.13C529.52 338.71 530.28 338.27 531.05 337.83C532.25 337.14 533.49 336.42 534.74 335.66C534.8 335.74 534.86 335.8 534.93 335.88C536.37 337.56 539.38 340.88 542.46 343.2C545.56 345.54 548.66 346.82 552.41 347.82C554.29 348.33 556.35 348.77 558.59 348.93C560.83 349.09 563.35 349.1 566.04 348.61C568.74 348.13 571.75 347.31 574.68 346.15C576.15 345.58 577.65 344.98 579.09 344.31C580.52 343.63 581.93 342.93 583.28 342.23C586.01 340.84 588.4 339.32 590.57 337.96C592.71 336.57 594.49 335.21 595.93 334.05C598.79 331.71 600.05 330.01 600.77 329.11C601.48 328.2 601.59 328.02 600.77 327.47C599.97 326.91 598.24 325.98 595.53 324.94C592.81 323.9 589.11 322.74 585.37 321.86C581.57 320.94 577.75 320.35 573.73 320.45C571.7 320.48 569.64 320.7 567.64 321.03C565.63 321.35 563.64 321.74 561.84 322.22C560.05 322.72 558.34 323.18 556.73 323.77C555.92 324.06 555.13 324.38 554.34 324.71C553.53 325.02 552.73 325.35 551.92 325.71C549.49 326.81 546.91 328 544.73 329.04C548.53 326.34 552.43 323.35 556.4 320.06C561.99 315.41 567.67 310.12 573.23 304.2C573.41 304.31 573.6 304.43 573.84 304.58C575.59 305.63 579.22 307.7 582.54 308.84C585.87 309.98 588.95 310.27 592.5 310.17C594.25 310.1 596.13 309.92 598.14 309.5C599.14 309.29 600.18 309.02 601.25 308.67C602.3 308.31 603.38 307.87 604.49 307.33C605.6 306.79 606.75 306.16 607.91 305.45C609.05 304.73 610.18 303.93 611.31 303.09C613.6 301.42 615.76 299.52 617.75 297.66C621.71 293.94 624.83 290.37 626.72 287.69C628.65 285.03 629.37 283.29 629.75 282.33C630.14 281.38 630.19 281.2 629.35 280.9C628.51 280.59 626.76 280.15 624.12 279.84C621.48 279.54 617.94 279.35 614.38 279.4C610.81 279.45 607.34 279.85 603.76 280.87C601.99 281.38 600.22 282.08 598.55 282.86C596.83 283.62 595.2 284.47 593.73 285.34C592.28 286.22 590.9 287.08 589.63 288.01C588.35 288.93 587.18 289.94 585.91 290.98C584.66 292.02 583.42 293.17 582.24 294.26C581.9 294.57 581.56 294.87 581.23 295.16C583.62 292.35 586.02 289.46 588.25 286.36C589.94 284.12 591.43 281.7 592.99 279.3C594.43 276.82 595.94 274.36 597.25 271.75C598.12 270.11 598.94 268.43 599.75 266.74C599.84 266.77 599.91 266.79 600.01 266.82C601.82 267.35 605.5 268.32 608.75 268.6C612.02 268.87 614.8 268.43 617.9 267.55C619.45 267.11 621.1 266.55 622.8 265.76C624.47 264.95 626.19 263.9 627.94 262.49C631.42 259.67 634.88 255.32 637.6 251.25C639.01 249.23 640.12 247.25 641.14 245.46C642.16 243.68 642.94 242.05 643.5 240.68C644.63 237.95 644.99 236.29 645.12 235.36C645.27 234.44 645.28 234.27 644.46 234.17C643.64 234.06 641.99 234.01 639.56 234.25C637.13 234.49 633.87 235 630.71 235.76C627.54 236.52 624.48 237.56 621.49 239.2C620.01 240.02 618.58 241 617.24 242.04C615.87 243.07 614.58 244.17 613.45 245.25C611.22 247.44 609.37 249.51 607.7 251.97C606.24 253.92 604.87 256.09 603.71 257.89C606.32 251.65 608.73 245.24 611.21 238.8C612.8 235.1 614.11 231.27 615.25 227.38C616.98 227.49 620.48 227.63 623.45 227.23C626.41 226.82 628.88 225.9 631.48 224.51C634.06 223.11 636.95 221.27 639.5 218.09C640.77 216.5 642.03 214.59 643.13 212.56C644.21 210.52 645.21 208.36 646.08 206.31C647.72 202.19 648.93 198.48 649.42 195.84C649.96 193.21 649.97 191.66 649.92 190.82L649.98 190.79Z" fill="white" fill-opacity="0.5"/>
<path d="M150.14 341.32C150.14 341.32 148.72 340.93 146.06 340.2C143.4 339.47 139.52 338.29 134.62 336.61C132.2 335.69 129.49 334.74 126.63 333.47C125.91 333.17 125.17 332.86 124.42 332.54C123.68 332.2 122.93 331.85 122.16 331.49C120.63 330.77 119.03 330.05 117.43 329.18C111.26 326.02 104.56 321.92 97.8401 316.67C97.9201 316.52 98.0001 316.37 98.1001 316.18C99.0901 314.29 101.03 310.48 102.28 307.11C103.55 303.71 104.09 300.73 104.48 297.46C104.68 295.81 104.88 294.05 104.92 292.25C104.94 291.35 104.92 290.43 104.86 289.49C104.81 288.54 104.72 287.56 104.57 286.58C104.42 285.6 104.2 284.6 103.94 283.61C103.71 282.59 103.43 281.56 103.12 280.56C102.48 278.58 101.84 276.54 101.15 274.74C100.48 272.92 99.8901 271.21 99.2601 269.77C98.6701 268.3 98.1401 267.02 97.6101 266.03C96.5801 264.05 95.7601 263.06 95.2601 262.56C94.7801 262.05 94.6701 261.97 93.9601 262.56C93.2401 263.15 91.9001 264.41 90.1801 266.47C88.4601 268.53 86.3601 271.41 84.6301 274.46C82.9301 277.49 81.5501 280.73 80.9901 284.25C80.7301 285.99 80.6701 287.82 80.7501 289.62C80.8301 291.43 81.1501 293.15 81.5101 294.79C81.8701 296.44 82.3801 297.92 82.9901 299.34C83.6101 300.76 84.2701 302.18 85.1301 303.54C85.9801 304.91 86.9101 306.34 87.8601 307.64C88.2701 308.18 88.6801 308.7 89.0801 309.21C84.7101 305.09 80.4301 300.48 76.2601 295.5C73.0101 291.49 69.9401 287.16 66.9801 282.63C66.9201 282.54 66.8601 282.45 66.8001 282.36C68.2201 280.89 70.7401 278.17 72.6201 275.61C74.6001 272.91 75.8201 270.38 76.9701 267.53C77.5301 266.11 78.1401 264.56 78.6001 262.93C79.0901 261.29 79.3901 259.59 79.5901 257.69C79.9301 253.93 79.5301 249.65 79.1501 245.94C78.7301 242.25 78.3201 239.11 77.7801 237.03C77.3101 234.92 76.7201 233.85 76.3801 233.26C76.0401 232.67 75.9701 232.57 75.2001 232.95C74.4301 233.33 72.9601 234.18 70.9901 235.66C69.0201 237.15 66.5401 239.29 64.3301 241.68C62.0901 244.08 60.2301 246.66 58.9401 249.72C58.2801 251.25 57.8401 252.87 57.5401 254.51C57.2401 256.14 57.0501 257.8 57.0201 259.35C57.0001 262.43 57.3701 265.18 58.2201 268.04C58.3901 268.68 58.5901 269.33 58.8101 269.98C58.5501 269.55 58.2801 269.14 58.0201 268.7C53.5401 261.41 49.2501 253.61 45.9701 245.27C46.1001 245.19 46.2301 245.11 46.3901 245.01C47.9101 244.04 50.9401 242.04 53.3001 240.04C55.6401 238.03 57.2701 236.01 58.8901 233.67C60.5401 231.31 62.2201 228.61 63.2501 225.25C63.8001 223.56 64.1801 221.71 64.4501 219.85C64.7801 217.97 65.0001 216.09 65.1401 214.35C65.5401 210.84 65.6601 207.89 65.6301 205.85C65.5601 203.82 65.2201 202.71 65.0501 202.09C64.8701 201.48 64.8201 201.37 64.0601 201.57C63.2901 201.77 61.8001 202.27 59.7301 203.25C57.6401 204.24 55.0201 205.72 52.6001 207.46C50.1801 209.2 47.8901 211.21 46.1901 213.72C44.5001 216.22 43.2201 219.28 42.6001 222.05C42.2701 223.45 42.0501 224.78 41.9301 226.11C41.8501 227.43 41.8501 228.75 41.9301 230.14C41.9601 231.16 42.0601 232.2 42.1901 233.23C41.0601 228.79 39.9501 224.34 38.8501 219.87C37.8401 215.58 36.9101 211.25 36.1001 206.9C37.7401 206.28 40.6301 205.12 42.9701 203.83C45.4601 202.45 47.2401 200.93 49.1901 199.09C51.1501 197.24 53.0801 195.1 54.6701 192.21C55.4701 190.76 56.1301 189.14 56.7201 187.48C57.3501 185.82 57.8801 184.13 58.3201 182.55C58.7701 180.97 59.2201 179.51 59.5201 178.2C59.8201 176.89 60.0601 175.75 60.2301 174.8C60.5401 172.91 60.4201 171.83 60.3501 171.23C60.2801 170.63 60.2501 170.53 59.5201 170.58C58.7901 170.63 57.3601 170.83 55.3301 171.38C53.3001 171.93 50.6601 172.83 48.1501 174C45.6301 175.17 43.2401 176.61 41.2701 178.59C39.2801 180.57 37.6101 183.12 36.5501 185.53C36.0001 186.74 35.5701 187.91 35.2201 189.1C34.9001 190.28 34.6801 191.48 34.4901 192.75C34.3701 193.47 34.2901 194.22 34.2201 194.96C33.1501 186.93 32.4301 178.84 32.4501 170.8C32.6001 170.78 32.7801 170.75 32.9901 170.71C34.5001 170.44 37.5301 169.86 40.0301 169.03C42.5201 168.2 44.4501 167.12 46.4801 165.76C48.4901 164.4 50.7201 162.77 52.5901 160.37C53.0601 159.77 53.5001 159.12 53.9401 158.45C54.3901 157.78 54.8301 157.07 55.2401 156.36C56.0801 154.93 56.7701 153.45 57.4801 152.08C58.8801 149.33 59.8501 146.93 60.4601 145.24C61.0401 143.54 61.0901 142.52 61.1201 141.96C61.1401 141.4 61.1501 141.3 60.4701 141.23C59.7901 141.16 58.4701 141.13 56.5401 141.32C54.6101 141.51 52.0701 141.94 49.6101 142.62C47.1701 143.31 44.7201 144.24 42.6301 145.74C40.5301 147.24 38.6001 149.3 37.2301 151.31C35.8801 153.33 34.9301 155.29 34.1901 157.53C33.5501 159.57 32.9701 161.83 32.6301 163.6C32.7501 161.51 32.9801 159.43 33.2501 157.37C33.4501 155.9 33.7301 154.45 33.9501 153C34.1701 151.55 34.3801 150.1 34.6001 148.66C35.0301 145.78 35.3401 142.89 35.8001 140.05C35.9101 139.11 36.0601 138.19 36.1901 137.26C36.2401 137.26 36.2901 137.26 36.3501 137.26C37.7601 137.25 40.6101 137.18 43.0101 136.82C45.4001 136.44 47.3201 135.75 49.3801 134.81C50.4101 134.34 51.4701 133.81 52.5401 133.16C53.6301 132.51 54.7201 131.74 55.7601 130.78C57.8001 128.84 59.8301 126.2 61.4501 123.84C63.0801 121.48 64.4401 119.43 65.1501 117.92C65.9001 116.42 66.1601 115.5 66.2601 114.98C66.3801 114.47 66.3801 114.37 65.7801 114.22C65.1801 114.07 63.9701 113.86 62.1701 113.77C60.3701 113.68 57.9801 113.72 55.6301 114.01C53.3101 114.31 51.0201 114.85 48.8601 115.92C47.7801 116.46 46.7301 117.12 45.7501 117.86C44.8001 118.61 43.9201 119.42 43.1401 120.24C41.5901 121.89 40.4201 123.53 39.4501 125.47C38.6901 126.97 37.9401 128.61 37.3801 130.03C38.7901 122.02 41.0801 114.39 43.7401 107.2C43.9001 107.23 44.0801 107.26 44.3301 107.29C45.6201 107.48 48.2401 107.81 50.4601 107.79C52.6801 107.77 54.5101 107.38 56.5201 106.79C58.5601 106.21 60.7601 105.43 62.9101 103.91C65.0301 102.39 67.2901 100.22 69.0401 98.2201C70.8701 96.2501 72.3501 94.5001 73.2201 93.1901C74.0801 91.8801 74.4501 91.0701 74.6101 90.6001C74.7801 90.1401 74.8001 90.0501 74.2701 89.8401C73.7401 89.6301 72.6501 89.2901 71.0201 89.0001C69.3901 88.7101 67.1801 88.4601 65.0101 88.4401C62.8501 88.4401 60.6901 88.6501 58.5801 89.3701C56.4701 90.0801 54.4001 91.3001 52.8001 92.6101C51.1801 93.9201 49.9201 95.2801 48.7401 96.9101C47.7901 98.2601 46.8701 99.7701 46.1501 101.05C46.2701 100.76 46.3901 100.45 46.5101 100.16C47.0101 98.9601 47.5101 97.7601 48.0101 96.5801C48.5201 95.4001 49.0701 94.2501 49.5901 93.0901C50.1101 91.9301 50.6301 90.7901 51.1401 89.6501C51.6801 88.5301 52.2201 87.4101 52.7501 86.3001C53.2801 85.1901 53.8001 84.0901 54.3201 83.0101C54.6801 82.2901 55.0401 81.5901 55.4001 80.8801C55.4401 80.8901 55.4801 80.9001 55.5301 80.9201C56.6901 81.2501 59.0401 81.8701 61.0701 82.1201C63.1101 82.3601 64.8401 82.2301 66.7401 81.9201C68.6201 81.6001 70.7901 81.1501 72.9501 80.0001C74.0301 79.4301 75.1301 78.6801 76.1801 77.8701C77.2701 77.0801 78.3201 76.2301 79.2601 75.4101C80.2101 74.5901 81.0601 73.8101 81.7901 73.0801C82.5501 72.3701 83.1901 71.7301 83.6701 71.1801C84.6501 70.0801 85.0201 69.3201 85.2301 68.9101C85.4301 68.4901 85.4601 68.4201 85.0001 68.1701C84.5401 67.9201 83.5801 67.5101 82.1201 67.0701C80.6501 66.6401 78.6801 66.1901 76.6801 65.9501C74.6801 65.7101 72.6601 65.6801 70.6301 66.1001C68.6401 66.5401 66.6501 67.4601 65.0001 68.4601C64.1701 68.9601 63.4301 69.4901 62.7401 70.0601C62.0701 70.6401 61.4401 71.2701 60.8101 71.9501C60.1701 72.6501 59.5201 73.4001 58.9301 74.1401C59.0201 73.9801 59.1101 73.8101 59.2001 73.6501C62.2701 67.9201 65.3901 62.6701 68.4601 57.9001C68.5501 57.9401 68.6501 57.9801 68.7701 58.0301C69.7901 58.4501 71.8701 59.2601 73.7101 59.6901C75.5301 60.1101 77.1601 60.1801 78.9601 60.1001C80.7601 60.0201 82.7501 59.7801 84.8501 58.9201C86.9201 58.0401 89.2601 56.6301 91.1401 55.2701C93.0201 53.9001 94.6301 52.7001 95.6301 51.7501C96.6401 50.8101 97.0601 50.1501 97.2801 49.7801C97.5101 49.4101 97.5401 49.3401 97.1401 49.0801C96.7401 48.8101 95.8901 48.3501 94.5901 47.8201C93.2801 47.3001 91.5101 46.7201 89.6901 46.3201C87.8801 45.9301 86.0201 45.7201 84.1201 45.9201C82.2101 46.1201 80.3301 46.8001 78.7201 47.5601C77.1201 48.3401 75.8001 49.2201 74.5101 50.3401C73.4501 51.2901 72.3801 52.3701 71.5201 53.2901C71.7201 52.9901 71.9301 52.6901 72.1301 52.3901C74.1801 49.3001 76.3101 46.5501 78.2101 43.9601C79.8201 41.8401 81.3901 39.9201 82.8401 38.1501C82.9301 38.2001 83.0301 38.2501 83.1501 38.3201C84.0501 38.8001 85.8901 39.7301 87.5301 40.2901C89.1701 40.8401 90.6501 41.0401 92.3101 41.1101C93.9801 41.1901 95.8301 41.1401 97.8401 40.5201C99.8301 39.8801 102.07 38.7401 103.96 37.6401C105.86 36.5501 107.36 35.4801 108.39 34.7101C109.41 33.9201 109.86 33.3401 110.1 33.0201C110.35 32.7001 110.38 32.6401 110.03 32.3601C109.68 32.0801 108.94 31.5901 107.77 31.0101C106.6 30.4301 105.01 29.7601 103.37 29.2501C101.72 28.7401 100.03 28.4001 98.2901 28.4701C96.5501 28.5301 94.7301 28.9701 93.1801 29.5501C91.6401 30.1301 90.3501 30.8201 89.0901 31.7601C88.2201 32.3901 87.3401 33.1101 86.5701 33.7801C88.7501 31.3201 90.5901 29.3401 92.0301 27.9201C94.0401 25.8901 95.1401 24.8401 95.1401 24.8401C95.2301 24.7601 95.3201 24.6601 95.3901 24.5601C96.4701 24.6201 98.3401 24.7401 99.9501 24.6501C101.72 24.5601 103.19 24.2401 104.8 23.7601C106.4 23.2601 108.18 22.6501 109.97 21.5301C111.76 20.4101 113.51 18.7201 115.04 17.2601C116.56 15.7901 117.77 14.4601 118.5 13.4901C119.23 12.5201 119.49 11.9001 119.63 11.5601C119.77 11.2201 119.79 11.1501 119.36 11.0501C118.94 10.9401 118.08 10.7901 116.77 10.7201C115.46 10.6401 113.71 10.6401 111.96 10.7801C110.22 10.9401 108.43 11.1901 106.76 11.8401C105.08 12.4801 103.45 13.4401 102.13 14.4001C100.81 15.3601 99.7901 16.3301 98.8601 17.5001C97.9101 18.6501 96.9901 19.9701 96.3501 20.9201C96.0401 21.3901 95.8001 21.7701 95.6001 22.0901C95.5501 22.0401 95.5001 21.9801 95.4401 21.9401C94.7401 21.4101 93.5601 21.6601 92.8101 22.5301C93.1401 22.0001 93.4801 21.4701 93.8001 20.9401C94.5901 19.6201 95.2001 18.3601 95.6901 16.8201C96.1801 15.2901 96.5201 13.4501 96.5701 11.7401C96.6101 10.0301 96.3101 8.3801 95.8501 6.7801C95.3901 5.1801 94.7901 3.6101 94.2601 2.4601C93.7301 1.3101 93.2801 0.580103 93.0201 0.240103C92.7601 -0.0998967 92.6901 -0.0598968 92.3501 0.210103C92.0001 0.480103 91.3801 0.980103 90.5101 2.0601C89.6401 3.1501 88.5001 4.8001 87.3901 6.8701C86.2701 8.9201 85.1201 11.3201 84.5801 13.4301C84.0701 15.5701 84.1801 17.4301 84.4001 19.0601C84.6201 20.6801 84.9701 22.0901 85.7201 23.5901C86.4701 25.0901 87.6201 26.7001 88.2101 27.4801C88.3001 27.6001 88.3701 27.6901 88.4301 27.7701C86.7201 29.8301 84.5701 32.4901 81.9601 35.6501C80.3101 37.7701 78.4001 40.0601 76.4401 42.6301C76.0101 43.2101 75.5601 43.8001 75.1001 44.4001C75.4001 43.9301 75.7801 43.3201 76.2901 42.4201C76.9201 41.2601 77.8601 39.7201 78.5701 38.2001C79.2901 36.6901 79.8301 35.2601 80.2001 33.5301C80.6001 31.8301 80.8701 29.8601 80.7501 27.9901C80.6401 26.1201 80.1601 24.3501 79.5201 22.6401C78.8801 20.9301 78.1001 19.2801 77.4401 18.0901C76.7801 16.8901 76.2301 16.1401 75.9201 15.8001C75.6101 15.4501 75.5401 15.5001 75.1801 15.8201C74.8201 16.1401 74.1701 16.7201 73.3301 18.0101C72.4801 19.2801 71.4201 21.2201 70.3401 23.5301C69.2601 25.8401 68.2801 28.6001 67.8901 30.9501C67.7001 32.1301 67.6701 33.2101 67.7301 34.2201C67.8101 35.2401 67.9801 36.1801 68.1801 37.0501C68.5801 38.7901 69.0901 40.2901 70.0401 41.8401C71.0001 43.4001 72.4001 45.0201 73.1101 45.8101C73.3401 46.0601 73.4901 46.2301 73.6001 46.3301C72.4701 47.8201 71.3001 49.3801 70.1501 51.0401C67.4001 54.7901 64.5501 58.9301 61.6901 63.4501C61.7301 63.3601 61.7601 63.2901 61.8001 63.2001C62.0901 62.5501 62.4201 61.7701 62.7601 60.9301C63.1201 60.1101 63.4801 59.2301 63.7901 58.3801C64.4101 56.6801 64.8401 55.0701 65.0701 53.1601C65.3301 51.2901 65.4101 49.1201 65.1001 47.1001C64.7901 45.0801 64.0901 43.2101 63.2401 41.4301C62.4001 39.6601 61.4101 37.9601 60.5801 36.7201C59.7501 35.4901 59.0801 34.7301 58.7101 34.3801C58.3401 34.0301 58.2701 34.0901 57.9201 34.4801C57.5701 34.8701 56.9001 35.5701 56.1001 37.0401C55.3101 38.5201 54.3401 40.7501 53.4001 43.3801C52.4601 46.0001 51.6801 49.1201 51.4901 51.7101C51.3001 54.2901 51.8601 56.4601 52.4601 58.3001C53.0801 60.1401 53.7901 61.6901 54.9901 63.2701C56.2001 64.8401 57.8901 66.4301 58.7501 67.2001C58.9101 67.3501 59.0401 67.4601 59.1501 67.5501C58.2401 69.0501 57.3401 70.5701 56.4401 72.1401C55.2701 74.1301 54.1701 76.2101 53.0501 78.3401C52.4901 79.4001 51.9301 80.4801 51.3601 81.5601C50.8301 82.6601 50.3001 83.7801 49.7601 84.9001C49.4501 85.5601 49.1401 86.2301 48.8201 86.8901C49.2801 85.4701 49.8201 83.6501 50.2001 81.9001C50.6201 79.9701 50.9501 78.2101 50.9701 76.1301C51.0001 74.0601 50.7801 71.6901 50.2501 69.5601C49.6901 67.4201 48.7401 65.4901 47.6101 63.6601C46.4901 61.8301 45.1901 60.0801 44.1701 58.8401C43.1401 57.6001 42.3401 56.8601 41.9001 56.5301C41.4701 56.1901 41.3901 56.2701 41.0501 56.7301C40.6901 57.1801 40.1001 58.0601 39.3901 59.7601C38.7001 61.4701 37.8201 63.9701 37.1801 66.9801C36.5401 70.0001 35.9101 73.4001 36.1101 76.2801C36.2701 79.1401 37.0801 81.3801 37.9501 83.2901C38.8601 85.2101 39.8401 86.8001 41.3501 88.3401C42.8601 89.8801 44.9101 91.3701 45.9301 92.0901C46.1301 92.2301 46.2701 92.3301 46.4001 92.4101C45.9801 93.4101 45.5501 94.4101 45.1601 95.4301C44.7001 96.6501 44.2401 97.8801 43.7701 99.1201C41.4001 105.45 39.2501 112.1 37.2001 118.98C37.2201 118.87 37.2401 118.75 37.2701 118.63C37.4301 117.86 37.6301 116.85 37.9001 115.2C38.2101 113.56 38.5701 111.26 38.7501 109.12C38.9401 106.98 39.0301 105.04 38.7501 102.79C38.4601 100.54 37.9801 98.0401 37.0801 95.8001C36.1801 93.5601 34.8701 91.6001 33.4201 89.7701C31.9901 87.9501 30.4001 86.2501 29.1201 85.0401C27.8401 83.8401 26.8801 83.1401 26.3601 82.8401C25.8501 82.5301 25.7801 82.6301 25.4701 83.1801C25.1701 83.7401 24.5801 84.7501 24.0301 86.6901C23.5101 88.6501 22.9601 91.5201 22.6201 94.8701C22.4801 96.5501 22.3701 98.3501 22.3701 100.11C22.3701 100.99 22.3901 101.86 22.4501 102.7C22.5301 103.55 22.6401 104.37 22.7801 105.13C23.3701 108.21 24.5301 110.51 25.7901 112.44C27.0501 114.37 28.3401 115.94 30.1901 117.37C32.0401 118.8 34.4601 120.09 35.6701 120.7C36.1101 120.92 36.3801 121.05 36.5601 121.13C35.6301 124.33 34.7101 127.57 33.8101 130.85C33.0801 133.65 32.3401 136.47 31.7501 139.35C31.3801 141.01 31.0701 142.68 30.7901 144.37C30.7701 143.02 30.7301 141.54 30.6801 140.14C30.5701 137.82 30.2201 135.69 29.6401 133.33C29.0501 130.98 28.0001 128.33 26.7301 126.07C25.4301 123.81 23.7501 121.9 21.9001 120.14C20.0501 118.39 18.0801 116.79 16.5301 115.68C14.9801 114.58 13.8401 113.97 13.2401 113.72C12.6401 113.47 12.5901 113.58 12.3301 114.23C12.0701 114.88 11.6101 116.07 11.3401 118.29C11.0701 120.5 10.8601 123.7 11.0901 127.4C11.2201 131.09 11.7801 135.26 12.8701 138.49C13.9701 141.72 15.7001 144.02 17.3401 145.89C18.9701 147.76 20.6201 149.22 22.8701 150.45C25.1101 151.67 27.9301 152.64 29.3301 153.09C29.5001 153.14 29.6501 153.19 29.7801 153.23C29.7001 154.51 29.6201 155.78 29.5901 157.07C29.5501 160.09 29.3001 163.09 29.1501 166.12C28.8701 171.13 28.7001 176.2 28.6901 181.29C28.4001 179.41 27.9001 177.01 27.4301 174.8C26.9001 172.34 26.1301 170.12 25.0901 167.69C24.0201 165.27 22.4501 162.62 20.6901 160.41C18.8901 158.2 16.7401 156.44 14.4601 154.87C12.2201 153.31 9.83007 151.92 7.97007 150.99C6.11007 150.07 4.79007 149.6 4.10007 149.44C3.42007 149.27 3.37007 149.4 3.22007 150.15C3.08007 150.9 2.76007 152.28 2.84007 154.73C2.88007 155.95 3.01007 157.44 3.22007 159.12C3.33007 159.96 3.44007 160.85 3.60007 161.77C3.77007 162.7 3.96007 163.66 4.18007 164.65C4.98007 168.62 6.35006 173.03 8.09007 176.31C9.91007 179.59 12.1401 181.75 14.2301 183.45C16.3701 185.15 18.4201 186.41 21.0201 187.3C23.6301 188.18 26.8201 188.68 28.4001 188.89C28.5501 188.91 28.6701 188.92 28.7901 188.94C28.9501 193.6 29.2801 198.27 29.8201 202.92C30.3401 206.94 30.9501 210.95 31.7001 214.94C31.3601 214.11 31.0201 213.27 30.6701 212.46C29.5301 209.95 28.3901 207.71 26.7401 205.34C25.0301 202.98 23.0101 200.43 20.6001 198.42C18.2001 196.41 15.6501 194.92 12.9101 193.68C10.1901 192.43 7.33007 191.4 5.19007 190.76C3.04007 190.12 1.54007 189.87 0.770065 189.83C0.0100653 189.78 -0.00993473 189.93 -0.0399347 190.77C-0.0899347 191.61 -0.0699347 193.16 0.460065 195.79C0.960065 198.42 2.16007 202.13 3.80007 206.26C4.67007 208.31 5.67007 210.47 6.75007 212.51C7.85007 214.55 9.11006 216.46 10.3801 218.04C12.9301 221.22 15.8201 223.06 18.4001 224.46C21.0101 225.85 23.4801 226.77 26.4301 227.18C29.4001 227.58 32.9001 227.44 34.6301 227.33C35.7601 231.23 37.0701 235.06 38.6701 238.75C41.1501 245.19 43.5601 251.6 46.1701 257.84C45.0101 256.05 43.6401 253.87 42.1801 251.92C40.5001 249.47 38.6601 247.39 36.4301 245.2C35.3001 244.12 34.0101 243.02 32.6401 241.99C31.3001 240.94 29.8701 239.97 28.3901 239.15C25.4001 237.51 22.3401 236.47 19.1701 235.71C16.0101 234.95 12.7501 234.44 10.3201 234.2C7.89006 233.96 6.24007 234.01 5.42007 234.12C4.60007 234.22 4.61007 234.39 4.76007 235.31C4.89007 236.23 5.25007 237.89 6.38007 240.63C6.94007 242 7.72006 243.62 8.74006 245.41C9.75006 247.19 10.8701 249.18 12.2801 251.2C15.0001 255.28 18.4601 259.62 21.9401 262.44C23.6901 263.85 25.4201 264.9 27.0801 265.71C28.7701 266.51 30.4201 267.06 31.9801 267.5C35.0801 268.39 37.8601 268.83 41.1301 268.55C44.3801 268.28 48.0601 267.3 49.8701 266.77C49.9701 266.74 50.0401 266.72 50.1301 266.69C50.9401 268.38 51.7601 270.06 52.6301 271.7C53.9401 274.3 55.4501 276.77 56.8901 279.25C58.4401 281.65 59.9301 284.07 61.6301 286.31C63.8601 289.41 66.2601 292.3 68.6501 295.11C68.3201 294.81 67.9901 294.51 67.6401 294.21C66.4601 293.12 65.2201 291.98 63.9701 290.93C62.7101 289.9 61.5301 288.89 60.2501 287.96C58.9801 287.03 57.6001 286.18 56.1501 285.29C54.6801 284.42 53.0501 283.57 51.3301 282.81C49.6501 282.03 47.8901 281.34 46.1201 280.82C42.5401 279.8 39.0701 279.41 35.5001 279.35C31.9301 279.29 28.4001 279.49 25.7601 279.79C23.1201 280.1 21.3701 280.53 20.5301 280.85C19.6801 281.15 19.7401 281.33 20.1301 282.28C20.5101 283.23 21.2301 284.98 23.1601 287.64C25.0501 290.32 28.1701 293.89 32.1301 297.61C34.1101 299.47 36.2801 301.37 38.5701 303.04C39.7001 303.88 40.8401 304.68 41.9701 305.4C43.1301 306.11 44.2701 306.74 45.3901 307.28C46.5001 307.82 47.5801 308.26 48.6301 308.62C49.7001 308.97 50.7401 309.24 51.7401 309.45C53.7501 309.87 55.6301 310.04 57.3801 310.12C60.9401 310.23 64.0101 309.94 67.3401 308.79C70.6601 307.65 74.2901 305.58 76.0401 304.53C76.2801 304.39 76.4801 304.26 76.6501 304.15C82.2101 310.07 87.8901 315.36 93.4801 320.01C97.4501 323.3 101.35 326.29 105.15 328.99C102.97 327.95 100.39 326.75 97.9601 325.66C97.1501 325.31 96.3401 324.97 95.5401 324.66C94.7501 324.33 93.9601 324.01 93.1501 323.72C91.5401 323.13 89.8301 322.66 88.0401 322.17C86.2401 321.69 84.2601 321.3 82.2401 320.98C80.2401 320.65 78.1801 320.43 76.1501 320.4C72.1201 320.3 68.3001 320.89 64.5101 321.81C60.7701 322.69 57.0801 323.85 54.3501 324.89C51.6301 325.93 49.9101 326.86 49.1101 327.42C48.3001 327.97 48.4101 328.14 49.1101 329.06C49.8301 329.96 51.0901 331.66 53.9501 334C55.3901 335.16 57.1701 336.51 59.3101 337.91C61.4801 339.27 63.8701 340.79 66.6001 342.18C67.9601 342.88 69.3601 343.59 70.7901 344.26C72.2301 344.93 73.7301 345.53 75.2001 346.1C78.1201 347.26 81.1401 348.08 83.8401 348.56C86.5301 349.05 89.0601 349.04 91.2901 348.88C93.5301 348.72 95.5901 348.28 97.4701 347.77C101.22 346.77 104.32 345.49 107.42 343.15C110.5 340.83 113.51 337.51 114.95 335.83C115.02 335.75 115.07 335.68 115.14 335.61C116.38 336.38 117.62 337.09 118.83 337.78C119.6 338.22 120.37 338.65 121.11 339.08C121.87 339.48 122.62 339.87 123.35 340.25C126.27 341.81 129.06 343.02 131.56 344.17C136.62 346.31 140.73 347.72 143.56 348.56C146.4 349.38 147.92 349.78 147.92 349.78C151.04 350.47 153.96 349.19 154.47 346.87C154.99 344.51 153.03 342 150.08 341.29L150.14 341.32Z" fill="white" fill-opacity="0.5"/>
<g clip-path="url(#clip1_1095_3176)">
<path d="M270.495 86V96.3109H276.264V120.395H270.495V129.991H301.27V120.395H295.501V96.3297H301.27V86H270.495Z" fill="white"/>
<path d="M329.472 129.991V120.414H333.936V110.385C333.936 107.356 331.761 106.001 328.981 106.001C325.443 106.001 322.776 108.598 322.776 112.116V120.432H327.373V130.01H303.313V120.414H307.663V105.963H303.313V96.3674H322.304V102.99C322.606 102.746 322.928 102.37 323.174 102.069C326.654 98.1173 330.626 96.7061 335.828 96.7061C343.148 96.7061 349.106 99.679 349.106 107.751V120.432H353.022V130.028H329.51L329.472 129.991Z" fill="white"/>
<path d="M391.268 110.554L378.273 111.965C378.122 108.39 377.365 104.59 372.977 104.59C367.397 104.59 366.962 109.218 366.962 113.659V113.753C366.962 118.193 367.397 122.822 372.977 122.822C375.909 122.822 378.5 121.147 378.5 117.61H378.916H391.438L391.324 118.72C389.187 129.182 379.692 130.819 372.844 130.819C362.12 130.819 351.565 125.569 351.565 113.659V113.696C351.565 101.786 362.12 96.5367 372.844 96.5555C372.844 96.5555 389.66 95.483 391.249 110.535" fill="white"/>
<path d="M401.33 124.722C401.33 127.733 398.871 130.179 395.845 130.179C392.819 130.179 390.36 127.733 390.36 124.722C390.36 121.712 392.819 119.266 395.845 119.266C398.871 119.266 401.33 121.712 401.33 124.722Z" fill="white"/>
<path d="M206.808 200.812C191.752 200.812 181.765 188.864 181.765 171.648C181.765 154.432 190.977 141.713 206.922 141.713C222.867 141.713 232.419 154.564 229.488 174.226H199.829C200.056 182.505 202.855 186.512 208.151 186.512C211.632 186.512 214.11 184.16 215.226 181.376L229.601 187.19C225.667 195.676 218.706 200.812 206.79 200.812M200.188 164.95H212.767C212.88 158.59 210.97 155.222 207.262 155.222C204.236 155.222 201.191 157.574 200.188 164.95Z" fill="white"/>
<path d="M285.627 203.522H285.552C285.552 192.101 276.794 186.964 266.126 186.964H254.474C250.767 186.964 250.086 184.725 250.086 182.599C250.086 181.921 250.2 181.376 250.427 180.698C252.904 181.489 255.817 181.809 259.071 181.809C277.305 181.809 282.601 170.293 282.658 161.714L282.714 161.751C282.714 161.751 283.017 155.636 282.128 151.628C281.22 147.508 282.09 142.71 283.377 140.226L283.225 140.076L273.654 145.156C270.117 143.105 265.369 141.713 259.109 141.713C240.912 141.713 235.635 153.228 235.635 161.601C235.635 166.399 237.318 172.213 242.047 176.465C238.794 178.93 235.767 182.843 235.767 187.303C235.767 192.552 238.056 196.71 241.669 199.1C245.036 201.32 250.2 202.374 254.134 202.374H260.905C265.369 202.317 267.507 204.444 267.526 207.511C267.545 210.032 265.237 213.419 264.424 214.548L264.556 214.698L285.684 203.503L285.627 203.522ZM259.071 153.096C263.894 153.096 265.577 157.01 265.577 161.582C265.577 166.38 263.894 170.293 259.071 170.293C254.247 170.293 252.659 166.38 252.659 161.582C252.659 156.784 254.228 153.096 259.071 153.096Z" fill="white"/>
<path d="M308.004 142.823H290.375V199.589H308.004V142.823Z" fill="white"/>
<path d="M366.167 171.309C366.167 189.184 355.84 200.812 340.103 200.812C324.365 200.812 313.924 189.184 313.924 171.309C313.924 153.435 324.365 141.694 340.103 141.694C355.84 141.694 366.167 153.322 366.167 171.309ZM348.085 171.309C348.085 159.907 344.604 156.107 340.103 156.107C335.166 156.107 331.912 159.907 331.912 171.309C331.912 181.809 335.052 186.625 340.103 186.625C344.604 186.625 348.085 181.827 348.085 171.309Z" fill="white"/>
<path d="M371.691 199.589V142.823H387.296L389.206 151.309C391.57 147.056 395.94 141.581 403.922 141.581C411.904 141.581 419.527 147.395 419.527 160.585V199.57H401.898V165.608C401.898 159.682 398.985 157.555 396.28 157.555C392.459 157.555 389.319 160.566 389.319 167.942V199.57H371.691V199.589Z" fill="white"/>
<path d="M455.106 199.589C455.106 199.589 453.933 197.538 453.933 192.665C450.869 198.686 446.178 200.812 440.901 200.812C430.346 200.925 425.409 193.324 425.409 185.835C425.409 179.57 428.001 174 435.51 169.974C439.785 167.622 445.516 166.06 453.593 164.837V161.149C453.593 156.577 451.455 154.225 447.861 154.225C444.268 154.225 442.357 156.577 442.357 159.362C442.357 160.698 442.471 161.827 442.811 162.711L428.322 160.359C428.095 159.23 427.982 157.894 427.982 156.784C427.982 148.185 436.399 141.581 450.112 141.581C464.828 141.581 471.335 148.392 471.335 160.359V191.555C471.335 195.017 472.319 198.046 472.735 199.138V199.589H455.106ZM453.593 181.809V173.868C451.115 174.433 448.977 175.204 447.18 176.427C445.157 177.763 443.814 179.889 443.814 182.467C443.814 185.703 445.838 187.942 448.41 187.942C451.663 187.942 453.574 185.478 453.574 181.79" fill="white"/>
<path d="M479.204 199.589V133.283L496.681 124.026L496.832 124.177V199.589H479.204Z" fill="white"/>
<path d="M549 182.147C549 192.308 540.677 200.925 525.073 200.925C511.265 200.925 502.053 193.775 502.053 183.389L517.109 181.263C516.655 185.854 520.022 188.864 525.073 188.864C529.669 188.864 531.712 186.4 531.712 183.954C531.712 180.604 528.893 179.475 524.524 178.365L517.79 176.578C507.671 173.887 503.301 167.641 503.301 159.813C503.301 150.537 511.51 141.6 526.321 141.6C541.131 141.6 547.657 149.879 547.544 156.464L533.509 160.604C533.622 156.577 530.482 153.905 525.98 153.905C521.479 153.905 519.795 156.37 519.795 158.477C519.795 160.585 521.138 162.165 524.619 163.05L532.374 165.063C540.015 167.076 549 170.538 549 182.147Z" fill="white"/>
<path d="M176.62 180.812C174.918 170.256 170.53 166.098 164.893 164.179C171.664 161.714 177.528 156.069 177.528 145.081C177.528 131.063 166.917 123.857 153.62 123.857H146.924C146.924 128.316 146.924 133.265 146.924 138.552H147.415C152.371 138.552 157.346 140.151 157.346 148.223C157.346 156.295 152.73 158.459 147.302 158.459H146.924C146.924 162.579 146.924 166.794 146.924 171.065C150.555 171.253 153.109 172.382 154.641 174.508C156.778 177.312 157.686 180.811 158.481 187.66C159.048 192.477 159.502 196.635 160.959 199.778H180.819V199.326C179.117 194.942 178.228 190.69 176.639 180.812" fill="white"/>
<path d="M139.887 124.026H117V199.947H139.887V124.026Z" fill="white"/>
<path d="M392.648 245.085C392.648 256.13 398.55 262.207 406.797 262.207C415.744 262.207 419.943 255.904 419.659 250.354L414.022 249.319C414.306 253.214 412.188 257.56 407.118 257.56C402.049 257.56 398.796 253.176 398.796 245.048C398.796 236.919 402.352 232.667 407.213 232.667C412.452 232.667 414.212 236.9 413.833 241.04L419.319 240.25C419.981 233.758 415.573 228.02 407.118 228.02C398.663 228.02 392.648 234.605 392.648 245.104M385.347 228.565H379.54V261.492H385.347V228.565ZM352.738 261.492H358.507V247.945H370.858V243.561H358.507V233.024H373.355V228.546H352.738V261.474V261.492ZM343.904 228.565H338.098V261.492H343.904V228.565ZM304.032 245.085C304.032 256.13 309.933 262.207 318.161 262.207C327.108 262.207 331.307 255.904 331.023 250.354L325.406 249.319C325.689 253.214 323.571 257.56 318.502 257.56C313.432 257.56 310.179 253.176 310.179 245.048C310.179 236.919 313.735 232.667 318.596 232.667C323.836 232.667 325.595 236.9 325.216 241.04L330.702 240.25C331.364 233.758 326.976 228.02 318.502 228.02C310.028 228.02 304.032 234.605 304.032 245.104M282.033 248.98L286.479 234.153L290.924 248.98H282.033ZM294.669 261.492H300.816L290.451 228.565H283.112L272.765 261.492H278.307L280.804 253.063H292.153L294.669 261.492ZM265.369 238.631C265.369 241.68 263.705 244.276 259.411 244.276H254.172V232.987H259.411C263.724 232.987 265.369 235.583 265.369 238.631ZM254.153 248.735H260.433C266.202 248.735 271.252 245.443 271.252 238.613C271.252 231.783 266.202 228.546 260.433 228.546H248.422V261.474H254.153V248.717V248.735Z" fill="white"/>
<path d="M315.778 295.699H303.653V293.817C309.12 289.96 312.449 287.082 312.449 283.845C312.449 281.794 311.106 280.684 309.404 280.684C307.436 280.684 306.207 282.02 306.207 283.77C306.207 284.73 306.604 285.877 307.493 286.837L304.542 286.498C303.88 285.576 303.559 284.523 303.559 283.507C303.559 280.797 305.715 278.295 309.593 278.295C313.47 278.295 315.551 280.722 315.551 283.525C315.551 287.59 311.541 290.751 307.418 293.366H315.797V295.718L315.778 295.699Z" fill="white"/>
<path d="M325.122 278.313C329.075 278.313 331.572 281.851 331.572 287.138C331.572 292.425 329.094 296 325.122 296C321.15 296 318.653 292.425 318.653 287.138C318.653 281.851 321.093 278.313 325.122 278.313ZM325.122 293.498C327.316 293.498 328.565 291.052 328.565 287.138C328.565 283.224 327.316 280.797 325.122 280.797C322.928 280.797 321.661 283.224 321.661 287.138C321.661 291.052 322.89 293.498 325.122 293.498Z" fill="white"/>
<path d="M346.78 295.699H334.655V293.817C340.122 289.96 343.451 287.082 343.451 283.845C343.451 281.794 342.108 280.684 340.405 280.684C338.438 280.684 337.209 282.02 337.209 283.77C337.209 284.73 337.606 285.877 338.495 286.837L335.544 286.498C334.882 285.576 334.561 284.523 334.561 283.507C334.561 280.797 336.717 278.295 340.594 278.295C344.472 278.295 346.553 280.722 346.553 283.525C346.553 287.59 342.543 290.751 338.419 293.366H346.799V295.718L346.78 295.699Z" fill="white"/>
<path d="M356.597 296C351.83 296 349.806 292.162 349.806 287.514C349.806 280.985 353.249 278.295 357.013 278.295C359.812 278.295 361.949 279.612 362.479 282.114L359.718 282.509C359.396 281.192 358.469 280.477 356.956 280.477C354.156 280.477 352.757 283.262 352.7 286.912C353.665 285.463 355.254 284.56 357.24 284.56C360.38 284.56 362.744 286.668 362.744 290.111C362.744 293.366 360.342 296 356.578 296H356.597ZM353.154 290.148C353.154 292.199 354.44 293.761 356.502 293.761C358.564 293.761 359.85 292.199 359.85 290.148C359.85 288.098 358.45 286.649 356.559 286.649C354.573 286.649 353.173 288.21 353.173 290.148H353.154Z" fill="white"/>
</g>
</g>
<defs>
<clipPath id="clip0_1095_3176">
<rect width="650" height="350" fill="white"/>
</clipPath>
<clipPath id="clip1_1095_3176">
<rect width="432" height="210" fill="white" transform="translate(117 86)"/>
</clipPath>
</defs>
</svg>
